Coordinates
version=1
nRows=24
nColumns=24
inDegrees=yes

Units are S.I. units (second, meters, Newtons, ...)
Angles are in degrees.

endheader
time	pelvis_tilt	pelvis_list	pelvis_rotation	pelvis_tx	pelvis_ty	pelvis_tz	hip_flexion_r	hip_adduction_r	hip_rotation_r	knee_angle_r	ankle_angle_r	subtalar_angle_r	mtp_angle_r	hip_flexion_l	hip_adduction_l	hip_rotation_l	knee_angle_l	ankle_angle_l	subtalar_angle_l	mtp_angle_l	lumbar_extension	lumbar_bending	lumbar_rotation
      5.19000000	     12.35621027	      0.60609728	      1.78430883	      1.63158700	      0.72855426	     -0.32550206	    -28.96946787	      1.10894312	     -6.07694550	    -24.43544743	     23.98821008	     31.48930111	      0.00000000	     17.36437988	      4.52271938	      2.55740119	    -21.71244465	     16.59452704	      3.46872771	      0.00000000	    -30.06377312	      1.56036789	     12.23875573
      5.19500000	     12.42993837	      1.14946267	      1.75462405	      1.64029803	      0.72894038	     -0.32621335	    -28.47508200	      0.31756595	     -6.37641939	    -26.69891936	     22.27943636	     31.67941248	      0.00000000	     17.23303951	      5.24273924	      2.78856397	    -23.01885365	     16.34088436	      2.67640792	      0.00000000	    -30.06747470	      0.97806400	     12.00298218
      5.20000000	     12.51055261	      1.68668671	      1.73274637	      1.64898489	      0.72940091	     -0.32693996	    -27.90978261	     -0.48211520	     -6.67905148	    -29.02708714	     20.42862525	     31.74756287	      0.00000000	     17.05607346	      5.95701699	      3.01331363	    -24.27421776	     16.15833411	      1.95007156	      0.00000000	    -30.08818270	      0.41262158	     11.76816550
      5.20500000	     12.59206214	      2.20441386	      1.71021799	      1.65760948	      0.72992805	     -0.32765548	    -27.26125650	     -1.27583391	     -6.95729271	    -31.41409403	     18.47998963	     31.62384279	      0.00000000	     16.83679035	      6.64068846	      3.18984703	    -25.45275547	     16.03253403	      1.32905307	      0.00000000	    -30.12672374	     -0.12713233	     11.54873275
      5.21000000	     12.66669132	      2.70231006	      1.68464990	      1.66616868	      0.73050807	     -0.32835814	    -26.52755206	     -2.06388538	     -7.21642677	    -33.83483851	     16.49748754	     31.29647212	      0.00000000	     16.57052953	      7.29562861	      3.33371098	    -26.52228454	     15.98401687	      0.80810641	      0.00000000	    -30.16937304	     -0.64008509	     11.33447654
      5.21500000	     12.71484883	      3.18676005	      1.65387292	      1.67466140	      0.73111064	     -0.32905689	    -25.68951454	     -2.85575261	     -7.44988600	    -36.28146306	     14.55859282	     30.76356748	      0.00000000	     16.26512857	      7.93454085	      3.47085694	    -27.45446353	     16.04634940	      0.33384664	      0.00000000	    -30.19434248	     -1.13333531	     11.12093110
      5.22000000	     12.76316967	      3.64706798	      1.62764829	      1.68304641	      0.73176218	     -0.32972538	    -24.78369183	     -3.62681929	     -7.66672735	    -38.72396474	     12.70762114	     29.96290015	      0.00000000	     15.90573007	      8.53011317	      3.54360835	    -28.26468495	     16.17518938	      0.01557888	      0.00000000	    -30.23967790	     -1.59505927	     10.91388812
      5.22500000	     12.78283435	      4.08775699	      1.59870867	      1.69133705	      0.73243926	     -0.33037248	    -23.78132088	     -4.38646773	     -7.85247632	    -41.15478523	     11.02322950	     28.92727827	      0.00000000	     15.50029840	      9.09713763	      3.59882109	    -28.90825240	     16.39707650	     -0.23629837	      0.00000000	    -30.26843744	     -2.02951117	     10.68895652
      5.23000000	     12.75443036	      4.50624583	      1.56164562	      1.69952917	      0.73310176	     -0.33099229	    -22.66579065	     -5.12136896	     -7.97206263	    -43.55832192	      9.57554093	     27.61002987	      0.00000000	     15.08868263	      9.63707365	      3.64369792	    -29.42644150	     16.72535090	     -0.45408700	      0.00000000	    -30.25775558	     -2.44116447	     10.47449514
      5.23500000	     12.74785617	      4.93864569	      1.55395780	      1.70763156	      0.73385693	     -0.33158860	    -21.54414623	     -5.85357789	     -8.09551928	    -45.87871011	      8.30829419	     26.15274461	      0.00000000	     14.57467889	     10.17857763	      3.68416627	    -29.78128873	     17.09818842	     -0.49373979	      0.00000000	    -30.28986790	     -2.85021788	     10.17886181
      5.24000000	     12.62715024	      5.26233377	      1.51387776	      1.71559667	      0.73453056	     -0.33211945	    -20.21270694	     -6.46059936	     -8.06678899	    -48.17548645	      7.41479209	     24.29005818	      0.00000000	     14.14303177	     10.59436815	      3.68806642	    -30.03589741	     17.62179556	     -0.57570679	      0.00000000	    -30.20423237	     -3.15900693	      9.97402453
      5.24500000	     12.56245754	      5.62791979	      1.52027698	      1.72348805	      0.73532291	     -0.33264831	    -18.93721989	     -7.09456220	     -8.11757866	    -50.35459866	      6.74962119	     22.35298319	      0.00000000	     13.58436558	     11.04054682	      3.66916981	    -30.15889536	     18.14460466	     -0.52133440	      0.00000000	    -30.19994541	     -3.48252487	      9.64843779
      5.25000000	     12.47052781	      5.96352936	      1.53832608	      1.73129367	      0.73616357	     -0.33314708	    -17.59743420	     -7.66957806	     -8.10742342	    -52.43205782	      6.31488837	     20.24907949	      0.00000000	     12.98926690	     11.44733605	      3.67611869	    -30.14706927	     18.71387195	     -0.39925217	      0.00000000	    -30.17737260	     -3.76893164	      9.29584840
      5.25500000	     12.38197278	      6.29648449	      1.57921009	      1.73903233	      0.73707460	     -0.33362529	    -16.24350749	     -8.22010229	     -8.09715133	    -54.39117728	      6.11001272	     18.03701025	      0.00000000	     12.33179288	     11.84035445	      3.68900927	    -30.01938156	     19.29792408	     -0.22331542	      0.00000000	    -30.16946214	     -4.03728315	      8.87708323
      5.26000000	     12.28516198	      6.61011379	      1.64744221	      1.74670602	      0.73804277	     -0.33410538	    -14.86529476	     -8.73056696	     -8.08851375	    -56.22385274	      6.12550609	     15.73394519	      0.00000000	     11.63455766	     12.20721954	      3.73338984	    -29.80026846	     19.89232143	      0.01737210	      0.00000000	    -30.16145117	     -4.27024757	      8.45142838
      5.26500000	     12.20037543	      6.91676891	      1.73646710	      1.75433029	      0.73909170	     -0.33455860	    -13.49197953	     -9.20520683	     -8.06377363	    -57.91391897	      6.31836014	     13.38705884	      0.00000000	     10.87330851	     12.55420024	      3.78773224	    -29.48267884	     20.47131230	      0.27449471	      0.00000000	    -30.17499509	     -4.48115896	      7.93682159
      5.27000000	     12.12614534	      7.22249883	      1.85141926	      1.76193495	      0.74022662	     -0.33501186	    -12.13322171	     -9.65649065	     -8.03841247	    -59.44770031	      6.66163763	     11.04727777	      0.00000000	     10.04498038	     12.89101515	      3.86892948	    -29.06217528	     21.01002102	      0.55132898	      0.00000000	    -30.20336905	     -4.67008649	      7.34911828
      5.27500000	     12.05226868	      7.47971350	      1.98927768	      1.76946074	      0.74139599	     -0.33546390	    -10.75887349	    -10.03872246	     -8.01141378	    -60.84422576	      7.12640454	      8.69132504	      0.00000000	      9.20071535	     13.17022336	      3.99488636	    -28.61482248	     21.54556272	      0.85851152	      0.00000000	    -30.24176509	     -4.79922042	      6.78515630
      5.28000000	     11.98761484	      7.74189429	      2.14791068	      1.77701523	      0.74264899	     -0.33591005	     -9.41108469	    -10.40889271	     -7.98432536	    -62.06671869	      7.67941256	      6.42880703	      0.00000000	      8.28530642	     13.44142349	      4.14321788	    -28.05450691	     22.00904153	      1.16753436	      0.00000000	    -30.28296588	     -4.91581296	      6.12638041
      5.28500000	     11.92993814	      7.95409765	      2.32917013	      1.78448326	      0.74391783	     -0.33635221	     -8.05979965	    -10.70258446	     -7.94458553	    -63.14628983	      8.31027773	      4.21036403	      0.00000000	      7.36402072	     13.65472234	      4.34141066	    -27.49821062	     22.45360418	      1.48696199	      0.00000000	    -30.34415699	     -4.96842028	      5.47878051
      5.29000000	     11.87757361	      8.16850916	      2.52412420	      1.79199562	      0.74523566	     -0.33681291	     -6.73458296	    -10.99861602	     -7.91946921	    -64.05449380	      8.98019016	      2.14818933	      0.00000000	      6.38196636	     13.86216481	      4.58211054	    -26.84027985	     22.83047543	      1.79105603	      0.00000000	    -30.39828410	     -5.00906380	      4.78489375
      5.29500000	     11.84321837	      8.39422687	      2.72988331	      1.79947124	      0.74655894	     -0.33726459	     -5.43620519	    -11.30440696	     -7.89890831	    -64.82444522	      9.75702134	      0.30177246	      0.00000000	      5.37225728	     14.06899821	      4.82280872	    -26.16217551	     23.11885013	      2.07494693	      0.00000000	    -30.48209258	     -5.05228794	      4.02442267
      5.30000000	     11.79048377	      8.51479160	      2.95735791	      1.80694967	      0.74787898	     -0.33772063	     -4.12513366	    -11.47274775	     -7.86329019	    -65.41704760	     10.45418379	     -1.52915686	      0.00000000	      4.35833677	     14.16624105	      5.18874078	    -25.44488103	     23.43785176	      2.33813153	      0.00000000	    -30.52539438	     -4.98161778	      3.34887800
      5.30500000	     11.74841598	      8.66170418	      3.18402961	      1.81440264	      0.74916564	     -0.33818612	     -2.83936689	    -11.67855485	     -7.82861175	    -65.87452132	     11.25834337	     -3.08203231	      0.00000000	      3.33148445	     14.27757449	      5.50753758	    -24.71203818	     23.68237365	      2.57439243	      0.00000000	    -30.59099542	     -4.92574837	      2.59470608
